<svg width="102" height="70" viewBox="0 0 102 70" fill="none" xmlns="http://www.w3.org/2000/svg">
<path d="M99.6033 57.5874C99.6033 56.9246 99.4818 56.3395 99.2388 55.8314C98.9958 55.3235 98.6468 54.926 98.1919 54.6387C97.737 54.3516 97.1826 54.208 96.5289 54.208H94.6735V60.9932H96.5289C97.1913 60.9932 97.7504 60.843 98.2053 60.5426C98.6602 60.2422 99.007 59.8359 99.2453 59.3234C99.4839 58.811 99.6033 58.2322 99.6033 57.5874ZM93.189 62.3051V52.8961H96.5289C97.5449 52.8961 98.393 53.106 99.0735 53.5256C99.7534 53.9452 100.264 54.5107 100.604 55.2217C100.944 55.9329 101.114 56.7216 101.114 57.5874C101.114 58.5416 100.926 59.3719 100.551 60.0787C100.175 60.7856 99.643 61.3334 98.9541 61.722C98.2649 62.1108 97.4564 62.3051 96.5289 62.3051H93.189ZM84.5089 55.6525V62.3051H83.0246V52.8961H84.2439L89.5715 59.6945V52.9094H91.0689V62.3051H89.7701L84.5089 55.6525ZM78.9807 58.6475L77.4985 54.5259L76.01 58.6475H78.9807ZM76.7962 52.8961H78.201L81.8587 62.3051H80.2947L79.3763 59.7474H75.6126L74.6891 62.3051H73.1124L76.7962 52.8961ZM66.8041 57.7199H69.4016C69.6757 57.7199 69.9184 57.6403 70.1303 57.4813C70.3425 57.3223 70.5104 57.108 70.634 56.8387C70.7576 56.5692 70.8195 56.2755 70.8195 55.9575C70.8195 55.6304 70.749 55.3367 70.6076 55.076C70.4662 54.8155 70.2829 54.6055 70.0576 54.4465C69.8323 54.2875 69.5871 54.208 69.3221 54.208H66.8041V57.7199ZM65.3198 62.3051V52.8961H69.4146C69.8392 52.8961 70.2276 52.9844 70.5812 53.1611C70.9345 53.3379 71.2415 53.5719 71.5022 53.8635C71.7629 54.1551 71.9658 54.4819 72.1115 54.8441C72.2576 55.2064 72.3303 55.5774 72.3303 55.9575C72.3303 56.3725 72.2551 56.7701 72.105 57.1501C71.9549 57.53 71.7409 57.8568 71.4624 58.1307C71.184 58.4046 70.8593 58.6034 70.4883 58.7271L72.7013 62.3051H71.0317L68.9908 59.0317H66.8041V62.3051H65.3198ZM57.859 54.1815V56.9513H60.5888C60.8365 56.9513 61.0571 56.8917 61.2516 56.7725C61.4461 56.6532 61.6006 56.4896 61.7152 56.282C61.8302 56.0743 61.8877 55.8382 61.8877 55.5729C61.8877 55.2991 61.8346 55.0583 61.7286 54.8508C61.6227 54.6432 61.4791 54.4798 61.298 54.3604C61.1168 54.2412 60.907 54.1815 60.6684 54.1815H57.859ZM62.2454 59.6017C62.2454 59.3367 62.1904 59.0958 62.08 58.8796C61.9695 58.663 61.819 58.4863 61.6292 58.3493C61.4393 58.2124 61.2162 58.1441 60.9602 58.1441H57.859V61.0196H60.8673C61.1323 61.0196 61.3688 60.9556 61.5763 60.8276C61.784 60.6995 61.9474 60.5272 62.0667 60.3108C62.186 60.0943 62.2454 59.8579 62.2454 59.6017ZM63.7695 59.8799C63.7695 60.3835 63.6391 60.8165 63.3787 61.1786C63.1179 61.5409 62.7668 61.8193 62.3249 62.0135C61.8834 62.208 61.3974 62.3051 60.8673 62.3051H56.3746V52.8961H61.2249C61.6668 52.8961 62.049 53.0132 62.3712 53.2473C62.6938 53.4814 62.9411 53.7817 63.1136 54.1483C63.2857 54.5151 63.3721 54.8972 63.3721 55.2947C63.3721 55.7541 63.2549 56.1848 63.0206 56.5868C62.7867 56.9887 62.4529 57.2869 62.0204 57.4813C62.5592 57.6403 62.9855 57.9298 63.2991 58.3493C63.6126 58.769 63.7695 59.2792 63.7695 59.8799ZM51.5641 60.9932V62.3051H45.1105V52.8961H51.4448V54.208H46.5945V56.885H50.7957V58.1174H46.5945V60.9932H51.5641ZM37.8349 57.7199H40.4324C40.7064 57.7199 40.9494 57.6403 41.1614 57.4813C41.3733 57.3223 41.5414 57.108 41.665 56.8387C41.7887 56.5692 41.8503 56.2755 41.8503 55.9575C41.8503 55.6304 41.7797 55.3367 41.6383 55.076C41.4969 54.8155 41.3136 54.6055 41.0887 54.4465C40.863 54.2875 40.6179 54.208 40.3528 54.208H37.8349V57.7199ZM36.3508 62.3051V52.8961H40.4457C40.8699 52.8961 41.2583 52.9844 41.6119 53.1611C41.9652 53.3379 42.2722 53.5719 42.5329 53.8635C42.7936 54.1551 42.9968 54.4819 43.1426 54.8441C43.2883 55.2064 43.361 55.5774 43.361 55.9575C43.361 56.3725 43.2862 56.7701 43.136 57.1501C42.9857 57.53 42.7715 57.8568 42.4931 58.1307C42.2151 58.4046 41.89 58.6034 41.519 58.7271L43.7324 62.3051H42.0625L40.0215 59.0317H37.8349V62.3051H36.3508ZM30.3076 62.3713C29.5566 62.3713 28.9227 62.2433 28.406 61.9871C27.8892 61.7308 27.4741 61.382 27.1602 60.9401C26.8467 60.4984 26.6171 59.9949 26.4713 59.4294C26.3253 58.864 26.2526 58.2765 26.2526 57.6669V52.8961H27.7369V57.6669C27.7369 58.0997 27.781 58.5172 27.8693 58.9193C27.9578 59.3212 28.0993 59.6812 28.2935 59.9992C28.4877 60.3174 28.7505 60.5692 29.0818 60.7546C29.4134 60.9401 29.8216 61.033 30.3076 61.033C30.8026 61.033 31.2156 60.9379 31.5468 60.748C31.8781 60.558 32.1388 60.3018 32.3287 59.9794C32.5185 59.6569 32.6577 59.297 32.7463 58.8994C32.8345 58.5018 32.8787 58.0909 32.8787 57.6669V52.8961H34.3761V57.6669C34.3761 58.3118 34.2991 58.9193 34.1443 59.489C33.9896 60.059 33.7512 60.558 33.4286 60.9866C33.1062 61.415 32.6888 61.7529 32.1764 62.0004C31.664 62.2477 31.041 62.3713 30.3076 62.3713ZM25.1262 54.208H21.9986V62.3051H20.5011V54.208H17.3605V52.8961H25.1262V54.208ZM15.0654 58.6475L13.5835 54.5259L12.0948 58.6475H15.0654ZM12.881 52.8961H14.2858L17.9434 62.3051H16.3795L15.4607 59.7474H11.6974L10.7739 62.3051H9.19719L12.881 52.8961ZM1.48411 55.6525V62.3051H0V52.8961H1.21904L6.54659 59.6945V52.9094H8.04406V62.3051H6.74545L1.48411 55.6525Z" fill="#CE5F75"/>
<path d="M84.756 69.3118V69.9727H82.0641V66.0955H84.7069V66.7562H82.8174V67.6899H84.4502V68.3016H82.8174V69.3118H84.756ZM78.0986 68.0123H79.0431C79.1379 68.0123 79.2215 67.984 79.2945 67.9276C79.3672 67.8712 79.4253 67.7957 79.4692 67.7009C79.513 67.6062 79.5347 67.5007 79.5347 67.3843C79.5347 67.2605 79.5093 67.1521 79.4583 67.0593C79.4073 66.9666 79.3427 66.8929 79.2643 66.8382C79.1861 66.7835 79.1012 66.7562 79.0105 66.7562H78.0986V68.0123ZM77.345 69.9727V66.0955H79.0596C79.238 66.0955 79.4026 66.1318 79.5537 66.2048C79.705 66.2775 79.8358 66.3759 79.9468 66.4996C80.058 66.6232 80.1435 66.7616 80.2034 66.9146C80.2637 67.0674 80.2938 67.2241 80.2938 67.3843C80.2938 67.5481 80.2656 67.7054 80.209 67.8567C80.1528 68.0076 80.0717 68.1396 79.966 68.2525C79.8607 68.3655 79.7367 68.4528 79.5947 68.5146L80.4793 69.9727H79.6494L78.852 68.6729H78.0986V69.9727H77.345ZM75.6676 69.3118V69.9727H72.9754V66.0955H75.6182V66.7562H73.7289V67.6899H75.3616V68.3016H73.7289V69.3118H75.6676ZM71.0796 66.0955V69.9727H70.3314V68.3181H68.5729V69.9727H67.8194V66.0955H68.5729V67.6628H70.3314V66.0955H71.0796ZM62.008 67.4825V69.9727H61.2547V66.0955H61.8554L63.8593 68.6511V66.101H64.6129V69.9727H63.9848L62.008 67.4825ZM58.4668 68.4763L57.9336 66.8763L57.3976 68.4763H58.4668ZM57.5511 66.0955H58.3158L59.7412 69.9727H58.9656L58.6433 69.0062H57.2199L56.8961 69.9727H56.1205L57.5511 66.0955ZM54.1426 68.531H53.3617V67.9796H54.7651V69.9727H54.1426V68.531ZM53.0612 70C52.8102 70 52.5725 69.949 52.3488 69.8472C52.125 69.7451 51.9284 69.604 51.759 69.424C51.5897 69.2436 51.4576 69.0334 51.3631 68.7931C51.2683 68.5528 51.2211 68.2926 51.2211 68.0123C51.2211 67.7465 51.2683 67.4962 51.3631 67.2614C51.4576 67.0265 51.5906 66.8198 51.7618 66.6415C51.9327 66.4631 52.1331 66.3231 52.3624 66.2211C52.5918 66.1191 52.8409 66.0681 53.1104 66.0681C53.4746 66.0681 53.7868 66.1456 54.0472 66.3002C54.3073 66.455 54.5031 66.6598 54.6342 66.9146L54.0718 67.3297C53.9733 67.1367 53.8356 66.9893 53.6591 66.8874C53.4826 66.7853 53.2906 66.7343 53.0833 66.7343C52.9193 66.7343 52.7701 66.769 52.6356 66.8382C52.5007 66.9074 52.3842 67.0019 52.286 67.1222C52.1875 67.2422 52.1119 67.3806 52.0592 67.5372C52.0066 67.6937 51.9799 67.8593 51.9799 68.034C51.9799 68.2198 52.0082 68.3909 52.0647 68.5474C52.1214 68.7039 52.2011 68.8404 52.3049 68.9571C52.4087 69.0734 52.5299 69.1654 52.6682 69.2328C52.8065 69.3001 52.9594 69.3337 53.1268 69.3337C53.3235 69.3337 53.5118 69.2827 53.692 69.1808C53.8723 69.0789 54.0407 68.9296 54.1974 68.7331V69.4757C53.8733 69.8253 53.4945 70 53.0612 70ZM46.7642 68.034C46.7642 68.2015 46.7894 68.3635 46.8404 68.5201C46.8913 68.6767 46.9653 68.8159 47.0616 68.9379C47.1582 69.0598 47.2766 69.1562 47.4165 69.2273C47.5569 69.2982 47.716 69.3337 47.8944 69.3337C48.0764 69.3337 48.2383 69.2965 48.3804 69.2218C48.5223 69.1472 48.6408 69.047 48.7356 68.9214C48.8303 68.7958 48.9021 68.6558 48.9511 68.5009C49.0002 68.3463 49.0248 68.1907 49.0248 68.034C49.0248 67.8666 48.9984 67.7054 48.9456 67.5508C48.8931 67.3961 48.8182 67.2578 48.7219 67.1358C48.6252 67.0137 48.5069 66.9174 48.3667 66.8463C48.2266 66.7751 48.0693 66.7399 47.8944 66.7399C47.7089 66.7399 47.5457 66.7771 47.4055 66.8517C47.2654 66.9265 47.1483 67.0258 47.0535 67.1494C46.9588 67.2732 46.887 67.4114 46.8378 67.5644C46.7887 67.7173 46.7642 67.8738 46.7642 68.034ZM47.8891 70C47.6051 70 47.3475 69.9455 47.1163 69.8362C46.8851 69.7269 46.6869 69.5786 46.5209 69.3911C46.3553 69.2035 46.227 68.9924 46.1359 68.7576C46.0449 68.5228 45.9995 68.2817 45.9995 68.034C45.9995 67.7757 46.048 67.5289 46.1443 67.2942C46.2407 67.0593 46.3736 66.8499 46.543 66.6662C46.7123 66.4822 46.9125 66.3367 47.1436 66.2294C47.3748 66.1217 47.6287 66.0681 47.9055 66.0681C48.1859 66.0681 48.4415 66.1246 48.6728 66.2375C48.9039 66.3503 49.1013 66.5014 49.265 66.6907C49.4291 66.88 49.5565 67.0911 49.6472 67.3242C49.7386 67.5571 49.7839 67.7975 49.7839 68.0449C49.7839 68.2997 49.7364 68.5448 49.6419 68.7795C49.5472 69.0142 49.4155 69.2236 49.2461 69.4075C49.0767 69.5914 48.8766 69.7361 48.6451 69.8416C48.4142 69.9471 48.1622 70 47.8891 70ZM42.0451 69.9727V66.0955H42.7983V69.3118H44.7752V69.9727H42.0451ZM39.9197 67.1111C39.8941 67.0856 39.8479 67.0511 39.7804 67.0074C39.713 66.9637 39.6313 66.9219 39.5346 66.8818C39.4383 66.8418 39.3336 66.8063 39.2208 66.7751C39.108 66.7444 38.993 66.729 38.8768 66.729C38.673 66.729 38.5192 66.7671 38.4154 66.8427C38.3116 66.9191 38.2597 67.0258 38.2597 67.1639C38.2597 67.2687 38.2923 67.3524 38.3579 67.4134C38.4235 67.4752 38.5216 67.528 38.6527 67.5709C38.7839 67.6145 38.9477 67.6618 39.1444 67.7128C39.3991 67.7737 39.6204 67.8493 39.8078 67.9376C39.9951 68.0268 40.1391 68.1423 40.2391 68.2852C40.3391 68.4291 40.3892 68.6184 40.3892 68.8533C40.3892 69.0598 40.3513 69.2364 40.2748 69.3829C40.1981 69.5304 40.0927 69.6487 39.9578 69.7388C39.823 69.8298 39.6704 69.8964 39.4992 69.9372C39.328 69.9791 39.1459 70 38.9529 70C38.7603 70 38.5673 69.98 38.3744 69.9399C38.1814 69.8999 37.9955 69.8425 37.8172 69.768C37.6388 69.6933 37.4751 69.6032 37.326 69.4977L37.6591 68.8478C37.6917 68.8805 37.7498 68.9232 37.8337 68.9761C37.9173 69.0289 38.0192 69.0815 38.1394 69.1345C38.2597 69.1873 38.3908 69.2318 38.5328 69.2681C38.6745 69.3046 38.8184 69.3229 38.9641 69.3229C39.168 69.3229 39.3227 69.2883 39.4284 69.2199C39.5337 69.1517 39.5865 69.0543 39.5865 68.9287C39.5865 68.8123 39.5446 68.722 39.461 68.6566C39.3771 68.5911 39.2609 68.5347 39.1114 68.4856C38.9623 68.4364 38.7858 68.3826 38.5816 68.3253C38.338 68.256 38.1341 68.1788 37.9701 68.0941C37.8063 68.0087 37.6845 67.9011 37.6044 67.7701C37.5242 67.64 37.4841 67.4772 37.4841 67.2805C37.4841 67.0164 37.5469 66.7946 37.6727 66.6151C37.7983 66.435 37.9685 66.2993 38.1832 66.2065C38.398 66.1146 38.6363 66.0681 38.8986 66.0681C39.0806 66.0681 39.2525 66.0881 39.4147 66.1282C39.5766 66.1683 39.7285 66.2211 39.8706 66.2866C40.0125 66.3523 40.14 66.4232 40.2528 66.4996L39.9197 67.1111ZM32.3336 68.0123H33.2783C33.3731 68.0123 33.457 67.984 33.5297 67.9276C33.6024 67.8712 33.6605 67.7957 33.7047 67.7009C33.7481 67.6062 33.7699 67.5007 33.7699 67.3843C33.7699 67.2605 33.7444 67.1521 33.6934 67.0593C33.6425 66.9666 33.5778 66.8929 33.4995 66.8382C33.4212 66.7835 33.3367 66.7562 33.2457 66.7562H32.3336V68.0123ZM31.5801 69.9727V66.0955H33.2948C33.4731 66.0955 33.6378 66.1318 33.7891 66.2048C33.9402 66.2775 34.0713 66.3759 34.1823 66.4996C34.2931 66.6232 34.3786 66.7616 34.4389 66.9146C34.4989 67.0674 34.529 67.2241 34.529 67.3843C34.529 67.5481 34.5007 67.7054 34.4445 67.8567C34.3879 68.0076 34.3068 68.1396 34.2015 68.2525C34.0958 68.3655 33.9719 68.4528 33.8301 68.5146L34.7148 69.9727H33.8846L33.0872 68.6729H32.3336V69.9727H31.5801ZM28.0406 70C27.731 70 27.4682 69.9481 27.2515 69.8444C27.0347 69.7405 26.86 69.5977 26.7274 69.4156C26.5943 69.2336 26.4968 69.027 26.435 68.7958C26.3731 68.5646 26.342 68.3235 26.342 68.0723V66.0955H27.0959V68.0723C27.0959 68.2325 27.1111 68.3881 27.1422 68.5392C27.1733 68.6903 27.2249 68.8259 27.2976 68.9461C27.3706 69.0662 27.4672 69.1607 27.5875 69.23C27.7074 69.2993 27.8566 69.3337 28.0349 69.3337C28.217 69.3337 28.3693 69.2982 28.4911 69.2273C28.6129 69.1562 28.7092 69.0609 28.7804 68.9406C28.8513 68.8204 28.9034 68.6848 28.936 68.5338C28.969 68.3826 28.9851 68.2288 28.9851 68.0723V66.0955H29.7334V68.0723C29.7334 68.3382 29.7014 68.5875 29.6377 68.8204C29.574 69.0534 29.474 69.2582 29.3376 69.4348C29.2008 69.6114 29.0252 69.7496 28.8106 69.8498C28.5955 69.95 28.3391 70 28.0406 70ZM21.7105 68.034C21.7105 68.2015 21.736 68.3635 21.7867 68.5201C21.8379 68.6767 21.9116 68.8159 22.0079 68.9379C22.1045 69.0598 22.223 69.1562 22.3631 69.2273C22.5032 69.2982 22.6623 69.3337 22.8407 69.3337C23.0227 69.3337 23.185 69.2965 23.3267 69.2218C23.4686 69.1472 23.5871 69.047 23.6819 68.9214C23.7766 68.7958 23.8484 68.6558 23.8975 68.5009C23.9465 68.3463 23.9711 68.1907 23.9711 68.034C23.9711 67.8666 23.9447 67.7054 23.8919 67.5508C23.8394 67.3961 23.7645 67.2578 23.6682 67.1358C23.5715 67.0137 23.4532 66.9174 23.3133 66.8463C23.1729 66.7751 23.0154 66.7399 22.8407 66.7399C22.6552 66.7399 22.4923 66.7771 22.3519 66.8517C22.2117 66.9265 22.0946 67.0258 21.9998 67.1494C21.905 67.2732 21.8333 67.4114 21.7842 67.5644C21.735 67.7173 21.7105 67.8738 21.7105 68.034ZM22.8354 70C22.5514 70 22.2937 69.9455 22.0626 69.8362C21.8314 69.7269 21.6332 69.5786 21.4672 69.3911C21.3016 69.2035 21.1733 68.9924 21.0825 68.7576C20.9915 68.5228 20.9461 68.2817 20.9461 68.034C20.9461 67.7757 20.9943 67.5289 21.0906 67.2942C21.1869 67.0593 21.3199 66.8499 21.4893 66.6662C21.6586 66.4822 21.8588 66.3367 22.0899 66.2294C22.3211 66.1217 22.575 66.0681 22.8518 66.0681C23.1322 66.0681 23.3878 66.1246 23.6191 66.2375C23.8503 66.3503 24.0479 66.5014 24.2113 66.6907C24.3754 66.88 24.5028 67.0911 24.5938 67.3242C24.6849 67.5571 24.7303 67.7975 24.7303 68.0449C24.7303 68.2997 24.683 68.5448 24.5883 68.7795C24.4938 69.0142 24.3617 69.2236 24.1924 69.4075C24.0233 69.5914 23.8229 69.7361 23.5918 69.8416C23.3605 69.9471 23.1085 70 22.8354 70ZM17.1769 66.0955L18.1324 67.9195L19.1047 66.0955H19.9182L18.5093 68.6184V69.9727H17.7614V68.6074L16.3578 66.0955H17.1769Z" fill="#CE5F75"/>
<path d="M61.1976 9.34313C60.5889 8.12799 60.3356 6.93697 60.4375 5.77063C60.5472 4.51715 61.0671 3.28292 61.9978 2.06831C62.1164 2.20157 62.2292 2.35316 62.3368 2.52307C62.4918 2.76813 62.6357 3.05328 62.7687 3.37769C62.4598 3.71439 62.2016 4.095 61.9937 4.51898C61.3723 5.78667 61.2101 7.4332 61.4938 9.43118C61.2066 8.70043 61.0742 7.76486 61.0929 6.85152C61.1146 5.7801 61.3436 4.74518 61.7734 4.11569L61.5689 3.9761C61.1109 4.64636 60.8673 5.73084 60.8446 6.84541C60.8268 7.71629 60.9434 8.61001 61.1976 9.34313ZM48.6224 13.3193C48.4466 13.4756 48.3179 13.6442 48.2442 13.8285C48.1364 14.0996 48.147 14.3876 48.3005 14.7004C48.0833 14.7399 47.8443 14.812 47.6194 14.8798C47.3611 14.9576 47.1253 15.0288 47.0467 15.0234C46.2928 14.9723 46.0725 14.8993 46.0781 14.8167C46.084 14.7317 46.2205 14.57 46.3568 14.4081C46.5844 14.1385 46.8124 13.8677 46.7406 13.5625C46.6711 13.2663 46.7179 13.0957 46.8301 13.0129C46.9109 12.9533 47.0305 12.9236 47.1698 12.9157C47.331 12.9068 47.5143 12.9285 47.6989 12.9702C48.0805 13.056 48.4527 13.201 48.6224 13.3193ZM51.237 11.2204L50.906 11.5623L50.8022 11.6701C50.5972 11.3761 50.4362 10.8394 50.4167 10.3751C50.4095 10.2019 50.4234 10.0439 50.4644 9.92008C50.4952 9.8263 50.5403 9.75681 50.6009 9.7258C50.7242 9.66219 50.9437 9.70617 51.2926 9.92115C51.8196 10.2456 52.2627 10.3981 52.6142 10.5189C53.0284 10.6614 53.2801 10.7477 53.3381 11.1548C53.2241 11.0934 53.0734 11.0537 52.8649 11.0507C52.8133 11.05 52.7425 10.9933 52.671 10.9355C52.355 10.6811 52.0259 10.4163 51.237 11.2204ZM48.9518 14.7904C48.6889 14.4737 48.6215 14.2203 48.705 14.0104C48.7989 13.7746 49.0727 13.556 49.4723 13.3419C50.3184 12.8889 50.6944 12.4973 51.2634 11.9049L51.5905 11.5667C52.0641 11.0838 52.2151 11.2052 52.3602 11.322C52.4985 11.4334 52.6343 11.5426 52.8571 11.5457C53.1231 11.5493 53.1974 11.6855 53.2663 11.8118C53.2947 11.8635 53.3223 11.9146 53.3583 11.9665C53.3645 11.9759 53.2788 12.3065 53.1819 12.7742C52.9503 13.8858 52.6002 15.5689 53.1085 16.3022C53.1374 16.3441 53.0454 16.286 53.0147 16.3387C52.9808 16.3975 52.9398 16.4583 52.8985 16.5142L52.8553 16.4469C52.6107 16.0666 52.3 15.582 51.7718 15.5293C51.4297 15.4952 50.5406 15.3655 49.82 15.166C49.4058 15.0513 49.0602 14.9209 48.9518 14.7904ZM57.9585 16.0283C57.0374 14.957 56.1174 13.8863 55.5236 12.6876C55.0323 11.6954 55.0503 10.6828 55.0708 9.53756C55.0845 8.76817 55.0994 7.94158 54.971 7.018C55.5533 7.82787 56.1568 8.25911 56.8218 8.73418C57.4029 9.14946 58.0337 9.6001 58.7425 10.3975C59.3117 11.0388 59.2875 12.2325 59.2244 13.8705C59.1374 13.256 59.0348 12.6402 58.9167 12.0237L58.7708 12.0515C58.9444 12.9571 59.0846 13.863 59.1906 14.7689L59.1809 15.0784L59.1557 14.9286C58.9621 13.7954 58.7173 12.6713 58.4218 11.5601L58.2776 11.5978C58.5306 12.549 58.7462 13.5091 58.9243 14.4751C58.6464 13.3765 58.2928 12.2958 57.865 11.2413L57.7273 11.2968C58.1847 12.4247 58.5572 13.5846 58.8428 14.7664L58.9094 15.0481L58.7455 14.6105C58.4495 13.7472 58.0747 12.8027 57.622 11.7772L57.4862 11.8371L57.7904 12.542C57.4032 11.8244 56.9669 11.1314 56.4846 10.4681L56.0847 10.7592C56.9066 11.889 57.59 13.1083 58.1232 14.3899C58.3441 14.9201 58.5389 15.4612 58.7077 16.0107C58.5836 15.7169 58.4554 15.4263 58.3233 15.1393C57.8528 14.1189 57.3302 13.1425 56.7556 12.2106L56.6291 12.2884C57.2006 13.2157 57.7205 14.1867 58.1884 15.2017C58.415 15.6933 58.6297 16.1954 58.8319 16.7081C58.6341 16.3094 58.4249 15.9107 58.2052 15.5119C57.6872 14.5727 57.1096 13.6348 56.4726 12.6978L56.3492 12.7814C56.9855 13.7162 57.5607 14.6502 58.075 15.5833C58.2123 15.832 58.3453 16.0806 58.4737 16.3296L58.2993 16.0576C57.8149 15.3153 57.2708 14.5863 56.668 13.871L56.5543 13.9665C57.1537 14.6777 57.6938 15.4017 58.1748 16.1384C58.2932 16.3197 58.4081 16.5019 58.519 16.6848L57.9585 16.0283ZM64.4349 2.1947C63.9485 2.41432 63.5204 2.68573 63.1496 3.00739C63.0381 2.75515 62.9182 2.52452 62.7905 2.31581C63.0365 2.01394 63.3169 1.74589 63.6241 1.51679C63.8979 1.31297 64.1937 1.13878 64.5069 0.998186C64.5274 1.16696 64.5352 1.33718 64.5296 1.50663C64.5218 1.73802 64.4904 1.96865 64.4349 2.1947ZM65.8441 1.95941L65.7657 1.75177L65.551 1.80691C65.3549 1.85738 65.1657 1.9142 64.9836 1.97697C65.0066 1.82707 65.0206 1.67579 65.0255 1.52443L65.0274 1.36849C65.3534 1.17375 65.6955 1.00781 66.0494 0.87241C66.3642 0.752133 66.688 0.655682 67.0183 0.584662C67.0394 0.864163 67.0428 1.14443 67.0283 1.42408C67.0108 1.76147 66.9676 2.09855 66.8987 2.43158C66.7029 2.58088 66.5245 2.75057 66.3661 2.93743C66.2881 3.02946 66.215 3.12545 66.1473 3.22526C66.0994 2.79425 65.9994 2.3711 65.8441 1.95941ZM62.869 9.73718C62.7923 9.70182 62.7133 9.67143 62.6326 9.646C63.2562 8.68813 63.7972 7.79678 64.2344 6.96645C64.7123 6.05899 65.0653 5.22652 65.2651 4.46232L65.0249 4.3997C64.8294 5.14717 64.4836 5.96246 64.0157 6.85144C63.6241 7.59434 63.1459 8.39122 62.5975 9.24385C62.7848 8.32868 63.0384 7.48429 63.3451 6.70818C63.7487 5.68586 64.245 4.78092 64.8021 3.98618L64.5983 3.84436C64.0318 4.65347 63.5262 5.57536 63.1148 6.61723C62.7615 7.5114 62.4775 8.49348 62.283 9.56818L62.2761 9.56719C62.3159 8.18572 62.4566 7.02617 62.7255 6.09152C63.0057 5.11617 63.4243 4.38664 64.0122 3.90462L63.855 3.71301C63.226 4.22887 62.7808 4.9991 62.4868 6.02287C62.2127 6.97684 62.0688 8.15311 62.0282 9.55069L62.0127 9.55077C61.7054 7.56616 61.843 5.95169 62.439 4.73625C63.0095 3.57288 64.0107 2.7679 65.4547 2.34659C65.8108 3.44825 65.7418 4.64056 65.3394 5.83562C64.8891 7.17195 64.0241 8.51188 62.869 9.73718ZM67.1812 3.61809C66.7638 4.86897 66.1862 6.0541 65.4659 7.14446C65.2537 7.46566 65.029 7.77884 64.7922 8.08324C65.2275 7.39769 65.5718 6.69566 65.8083 5.99316C65.9904 5.45249 66.1091 4.91113 66.1572 4.37618C66.27 3.95853 66.472 3.57784 66.7437 3.25695C66.972 2.98791 67.251 2.75965 67.568 2.58714C67.7035 2.84732 67.7886 3.12774 67.8215 3.41366C67.8604 3.75036 67.8277 4.0953 67.7209 4.42452C67.2386 4.84354 66.8114 5.51266 66.3362 6.2564C66.1809 6.49955 66.0205 6.75118 65.8511 7.00402C66.5013 5.97239 67.028 4.86217 67.417 3.69591L67.1812 3.61809ZM63.6012 10.3042L63.5943 10.296C64.3111 10.2595 65.0116 10.1037 65.6691 9.83974C66.4711 9.5177 67.2088 9.03392 67.8315 8.40856L67.6559 8.23368C67.0574 8.83438 66.3484 9.29937 65.5764 9.6095C65.2508 9.74016 64.914 9.84348 64.5694 9.91763C65.1324 9.70075 65.6629 9.41293 66.1488 9.06317C67.0687 8.40084 67.8277 7.51652 68.3433 6.47061L68.1211 6.36079C67.623 7.37081 66.8909 8.22383 66.0043 8.8621C65.3183 9.35619 64.5396 9.72191 63.7056 9.93245C65.102 9.11166 65.9913 7.71889 66.7548 6.52376C67.3554 5.58315 67.8728 4.77321 68.4532 4.53838C68.7422 5.31946 68.8983 6.01981 68.9221 6.63876C68.9505 7.3815 68.7886 8.00786 68.4362 8.51723C68.0811 9.03026 67.5276 9.43446 66.7756 9.73C65.95 10.0539 64.8919 10.2452 63.6012 10.3042ZM49.1578 16.5589L48.986 16.5938C48.6003 16.6686 48.4975 16.6718 48.3483 16.6762C48.2508 16.679 48.1358 16.6827 47.9311 16.7024C47.7664 16.7184 47.5852 16.6438 47.427 16.5201C47.295 16.4169 47.1824 16.2819 47.1091 16.1364C47.0408 16.0011 47.0075 15.8601 47.0262 15.734C47.038 15.6556 47.0722 15.5802 47.1331 15.5126C47.2999 15.4931 47.5227 15.4258 47.762 15.3535C48.11 15.2488 48.5015 15.1308 48.6137 15.1537C48.8157 15.3523 49.224 15.5152 49.6892 15.6439C50.4377 15.8511 51.3653 15.9865 51.723 16.0219C52.0076 16.0499 52.244 16.4123 52.4305 16.7027C52.3227 16.6726 52.2043 16.6215 52.0803 16.5673C51.8326 16.4596 51.5667 16.3438 51.2547 16.32C50.5651 16.2672 49.6305 16.4609 49.1578 16.5589ZM62.9219 20.4296C62.7817 20.8509 62.297 21.1812 61.6037 21.5621C61.7802 21.4177 61.9549 21.2707 62.1283 21.1208L62.0307 21.0085C61.6525 21.3354 61.2682 21.6488 60.8772 21.9491L60.8253 21.9762C61.3101 21.5607 61.7796 21.1271 62.2324 20.6757L62.1276 20.5705C61.8185 20.8785 61.5012 21.1787 61.1768 21.4705C61.5481 21.0788 61.9005 20.6691 62.233 20.2428L62.1158 20.1512C61.7432 20.6296 61.3446 21.0865 60.9226 21.52C61.0252 21.381 61.1249 21.24 61.2215 21.0969C61.4232 20.8411 61.6292 20.5691 61.8402 20.2807L61.7607 20.2226C61.9474 19.8897 62.1186 19.5477 62.2743 19.1978L61.8212 18.9972C61.4645 19.8002 61.0211 20.5581 60.5009 21.2574C60.7878 20.8195 61.0537 20.3733 61.2986 19.919L61.168 19.8492C60.8213 20.4914 60.4316 21.1191 59.9981 21.7323C59.8984 21.8736 59.7962 22.0142 59.6917 22.1537L59.8646 21.8727C60.2374 21.2548 60.5898 20.6028 60.9207 19.9174L60.7865 19.8527C60.4565 20.5365 60.1066 21.1844 59.7375 21.796L59.7181 21.8274C59.9326 21.3798 60.128 20.9117 60.3046 20.4226L60.1647 20.3726C59.9972 20.8364 59.812 21.282 59.61 21.7087C59.8997 20.8867 60.2007 20.0751 60.6529 19.3959C61.0528 18.7952 61.641 18.4694 62.3066 18.1011C62.6888 17.8893 63.0955 17.6642 63.512 17.3666C63.3289 17.8663 63.2867 18.2996 63.241 18.77C63.1949 19.2431 63.1452 19.7565 62.9219 20.4296ZM58.8481 35.5536C58.7916 34.9972 58.7428 34.4406 58.7017 33.884C58.6347 32.9685 58.5883 32.0529 58.5644 31.1381C59.6765 25.9579 63.0023 27.473 61.6059 23.4263C59.9354 25.2221 58.9326 27.4354 58.5449 29.8033C58.5432 29.3183 58.5486 28.8334 58.5598 28.349C58.5812 28.035 58.5911 27.7215 58.5899 27.4091C58.6406 26.1706 58.7335 24.9352 58.8708 23.7045C59.7225 23.116 60.5311 22.6907 61.2178 22.3294C62.3377 21.7398 63.1518 21.3114 63.3932 20.5851C63.6319 19.8664 63.685 19.3212 63.7335 18.8186C63.8071 18.0595 63.8709 17.4054 64.6502 16.3418L64.2658 16.0303C63.5256 16.8591 62.7547 17.2856 62.0658 17.6675C61.3458 18.0659 60.7091 18.4186 60.2411 19.1215C59.7701 19.8293 59.4625 20.6377 59.1728 21.4568C59.6827 18.2145 60.5128 15.012 61.6997 11.8813C61.8868 11.9387 62.0972 11.9338 62.3222 11.8609C62.7115 11.7349 63.1577 11.3932 63.6092 10.8003C64.9631 10.7393 66.0789 10.5369 66.9562 10.1922C67.8013 9.86043 68.4303 9.3959 68.8433 8.79887C69.2587 8.19809 69.4504 7.47223 69.4178 6.62166C69.3895 5.8893 69.1956 5.06439 68.8354 4.14746L68.7615 3.95876L68.562 3.99328C68.475 4.00847 68.3905 4.03177 68.3082 4.06208C68.3389 3.82741 68.3405 3.59037 68.3134 3.35699C68.2637 2.92453 68.1155 2.50322 67.8741 2.12803L67.7585 1.94818L67.564 2.03539L67.4626 2.0832C67.4922 1.87312 67.5124 1.66189 67.5233 1.44974C67.5434 1.05424 67.5307 0.65637 67.4847 0.260791L67.4542 -7.62939e-05L67.1964 0.0444453C66.743 0.12295 66.2996 0.244984 65.8726 0.408408C65.5674 0.525248 65.2704 0.663166 64.9833 0.821397C64.9721 0.747475 64.9584 0.673552 64.9426 0.600164L64.8823 0.318983L64.6135 0.419481C64.1524 0.592069 63.7201 0.828652 63.3286 1.1203C63.0241 1.34726 62.7451 1.60652 62.4971 1.89351C62.3846 1.75154 62.2671 1.62409 62.145 1.51167L61.9502 1.33252L61.7839 1.5384C60.6826 2.9007 60.0699 4.29645 59.9447 5.7258C59.8216 7.13232 60.1725 8.56228 60.9959 10.0155C60.9117 10.6033 60.9751 11.076 61.1451 11.3991C61.1836 11.4723 61.2274 11.5384 61.2765 11.5971C60.6417 13.2597 60.1066 14.942 59.6657 16.6398C59.6492 15.7029 59.6821 14.8491 59.7126 14.0849C59.785 12.2309 59.8375 10.8838 59.1132 10.0683C58.372 9.23385 57.7142 8.76412 57.1086 8.33143C56.1709 7.66154 55.3632 7.08452 54.5587 5.25768L54.0961 5.43462C54.6205 7.02839 54.5973 8.34792 54.5758 9.52778C54.554 10.7393 54.5351 11.8105 55.0783 12.9074C55.6988 14.1599 56.6404 15.2553 57.5822 16.3513C58.1632 17.0273 58.7446 17.7035 59.2422 18.4081C58.7906 20.4583 58.4728 22.5281 58.2795 24.61C58.0766 23.6804 57.7792 22.7719 57.397 21.8978C56.5058 19.8599 55.1553 18.0088 53.4823 16.5147C53.5734 16.332 53.6057 16.1501 53.5156 16.0198C53.1284 15.4614 53.4528 13.9035 53.6669 12.8748C53.7632 12.4112 53.8403 12.0404 53.8124 11.8241C53.9888 10.4675 53.6063 10.3357 52.7754 10.05C52.4488 9.93772 52.0364 9.79598 51.5527 9.49808C51.0344 9.17894 50.649 9.14419 50.3743 9.28555C50.187 9.38246 50.0636 9.55138 49.9927 9.76437C49.9325 9.94726 49.911 10.165 49.9207 10.3942C49.9353 10.7409 50.0257 11.1267 50.1609 11.4631C50.0906 11.3247 50.0294 11.1821 49.9775 11.0365C49.829 10.6174 49.7569 10.1696 49.77 9.71564L49.274 9.69968C49.2592 10.2141 49.3415 10.723 49.5111 11.2014C49.5739 11.3777 49.6485 11.5497 49.7342 11.7162C49.5636 11.5122 49.3763 11.3055 49.1833 11.108C48.7526 10.6684 48.2875 10.2695 47.8972 10.0404L47.6464 10.4682C47.9994 10.6754 48.4285 11.0447 48.8297 11.4548C49.0736 11.7037 49.3058 11.966 49.504 12.2155C49.2181 11.9387 48.916 11.6812 48.5991 11.4446C48.1029 11.0744 47.5669 10.7525 46.9998 10.4855L46.79 10.9336C47.3226 11.1842 47.8294 11.4892 48.3027 11.8426C48.6957 12.1358 49.0634 12.4609 49.4014 12.8146L49.3965 12.8176C49.0814 12.5246 48.7293 12.2833 48.3533 12.097C47.9161 11.8805 47.4451 11.7382 46.9606 11.6755L46.8981 12.1667C47.3257 12.2219 47.7437 12.3485 48.134 12.542C48.2197 12.5845 48.3039 12.6302 48.3869 12.6791C48.2044 12.5983 48.0062 12.5307 47.8073 12.4858C47.5827 12.4352 47.3534 12.4094 47.1427 12.421C46.9109 12.4335 46.6996 12.4927 46.5349 12.6145C46.2649 12.8139 46.1347 13.1502 46.2583 13.6751C46.2729 13.7377 46.1251 13.9133 45.9774 14.0882C45.7891 14.3115 45.6011 14.5344 45.5843 14.7816C45.5627 15.1035 45.7959 15.3598 46.585 15.4734C46.562 15.5342 46.5461 15.5967 46.5368 15.6603C46.5013 15.894 46.5542 16.1371 46.6657 16.3584C46.7723 16.5695 46.9336 16.764 47.1219 16.911C47.373 17.1076 47.6783 17.2245 47.9783 17.1955C48.1644 17.1775 48.2713 17.1741 48.3617 17.1714C48.5357 17.1661 48.6557 17.1627 49.0801 17.0804L49.2582 17.0441C49.7081 16.9508 50.5981 16.7663 51.2158 16.8136C51.4426 16.8308 51.6707 16.9299 51.8833 17.0225C52.2708 17.1912 52.6182 17.3423 53.0029 17.1222L53.0377 17.0983C53.0818 17.0619 53.1399 17.0015 53.2005 16.9289C54.7992 18.3689 56.0894 20.1442 56.9427 22.0949C57.4983 23.3662 57.869 24.7119 58.0194 26.0877L58.0113 26.331L58.0542 26.4569C58.079 26.7627 58.0924 27.0699 58.0946 27.3781C58.056 28.3157 58.0417 29.2551 58.0511 30.1953C58.0667 31.782 58.1483 33.3713 58.2925 34.9596L57.7891 34.3475C50.5385 25.9373 38.9868 12.7134 33.9032 10.1001C32.0027 9.12319 29.7244 10.0268 27.8242 10.8184C30.0311 10.1645 32.3414 10.7122 34.1611 12.108C36.2433 13.8605 37.6276 15.3841 39.209 17.5977V37.8252C39.209 39.6902 37.7685 40.0729 36.261 40.0729V40.8054H43.8511V40.0729C42.3652 40.0729 40.9575 39.749 40.9037 37.8622V19.4401L60.3207 40.9569C64.1667 45.1179 67.2486 47.5609 73.2899 45.6732C70.657 46.152 68.9675 45.4438 66.7868 44.0703C65.0486 42.9771 63.3873 40.8088 62.0341 39.2622C60.9788 38.0569 59.9291 36.7082 58.8481 35.5536Z" fill="#CE5F75"/>
</svg>
